# xmcd
#
# Track frame offsets:
#	183
#	23148
#	50033
#	63130
#	80765
#	95940
#	200313
#	218335
#	235338
#
# Disc length: 3364 seconds
#
# Revision: 0
# Processed by: cddbd v1.5.2PL0 Copyright (c) Steve Scherf et al.
# Submitted via: audiograbber 1.83.01
#
DISCID=780d2209
DTITLE=Canned Heat - The Boogie Assault (Live in Australia)
DYEAR=1996
DGENRE=Blues
TTITLE0=On The Road Again
TTITLE1=Amphetamine Annie
TTITLE2=Going Up The Country
TTITLE3=Lets Work Together
TTITLE4=Kings of The Boogie
TTITLE5=Refried Hockey Boogie
TTITLE6=Hell's On Down The Line
TTITLE7=Chicken Shack Boogie
TTITLE8=So Long
EXTD=AIM, Newport Beach, 2106, Australia
EXTT0=
EXTT1=
EXTT2=
EXTT3=
EXTT4=
EXTT5=
EXTT6=
EXTT7=
EXTT8=
PLAYORDER=
